<?xml version="1.0" encoding="UTF-8"?><svg id="_이어_2" xmlns="http://www.w3.org/2000/svg" viewBox="0 0 206.68 269.91"><defs><style>.cls-1{fill:#333;}.cls-2{fill:#4cff39;}.cls-3{fill:#ff9f9f;}.cls-3,.cls-4,.cls-5{stroke:#333;stroke-miterlimit:10;stroke-width:4px;}.cls-4{fill:#fff;}.cls-5{fill:#ff3131;}</style></defs><g id="Layer_2"><g><path class="cls-4" d="M2.98,182.83l2.76,73.09c.22,5.75,4.38,10.8,10.19,11.81,1.72,.3,3.47,.26,5.11-.38l173.38-74.35c.41-.18,.81-.37,1.2-.59,1.3-.73,4.13-2.49,6.3-5.05,1.89-2.22,2.81-5.07,2.77-7.95l-.63-87.94c-.09-6.29-5.45-1.82-11.86-2.56l-40.39-4.63c-2.59-.3-5.2,.18-7.51,1.36l-55.08,28.32c-.58,.3-1.13,.64-1.65,1.01L8.18,172.29c-3.41,2.46-5.36,6.41-5.2,10.54Z"/><path class="cls-3" d="M203.93,131.54c-.07-.57-.14-1.14-.21-1.71-2.73,1.56-5.44,3.19-8.21,4.68-22.72,12.19-47.29,21.93-70.93,32.31-24.26,10.65-89.72,38.96-98.63,41.29-3.96,1.04-8.7,2.05-12.81,1.33-1.88-.33-8.17-2.02-8.18-4.42,.03,7.1,.17,14.17,.44,21.27,.22,5.75,4.38,10.8,10.19,11.81,1.72,.3,3.47,.26,5.11-.38,13.22-5.67,26.44-11.34,39.66-17.01,26.52-11.37,53.05-22.75,79.57-34.12,21.74-7.95,43.73-17.82,64.28-28.35-.37-4.11,.29-21.74-.28-26.71Z"/><path class="cls-4" d="M64.98,45.99L3.24,168.37c-4.88,9.67,5.54,19.89,15.49,15.2L196.73,99.67c5.51-2.6,8.61-9.18,5.72-14.43-14.09-25.63-67.69-51.75-131.85-44.57-2.67,.3-4.44,2.97-5.63,5.32Z"/><g><path class="cls-5" d="M159.41,31.32c-4.03-7.77-12.2-12.86-20.02-16.45-10.31-4.75-25.5-8.12-34.82-.43-8.38,6.91-9.98,18.49-10.14,28.57-.15,9.33,1.11,18.79,3.83,27.75,1.02,3.35,2.71,6.66,5.58,8.77,6.91,5.08,16.88,1.73,23.84-1.45,15.85-7.26,40.88-23.39,33.05-43.83-.38-.99-.82-1.96-1.31-2.91Z"/><g><path class="cls-2" d="M133.93,27.51c-1.8,0-3.37-1.18-3.74-2.79l-.88-3.82-4.85-.86c-1.57-.28-2.77-1.39-3.05-2.83-.26-1.3,.3-2.55,1.44-3.27l3.15-2-1.64-3.27c-.5-1-.46-2.15,.11-3.07,.61-1,1.77-1.61,3.03-1.61,.47,0,.94,.08,1.39,.25l4.64,1.7,2.79-2.87c.66-.68,1.58-1.05,2.58-1.05,1.8,0,3.37,1.18,3.74,2.79l.88,3.82,4.85,.86c1.57,.28,2.77,1.39,3.05,2.83,.25,1.3-.3,2.55-1.44,3.27l-3.15,2,1.64,3.27c.5,1,.46,2.15-.11,3.07-.61,1-1.77,1.61-3.03,1.61-.47,0-.94-.08-1.39-.25l-4.64-1.7-2.79,2.87c-.66,.68-1.58,1.05-2.58,1.05Z"/><path class="cls-1" d="M138.91,4c.79,0,1.62,.48,1.79,1.24l.95,4.11c.14,.59,.71,1.08,1.43,1.21l4.95,.88c1.42,.25,1.97,1.76,.89,2.45l-3.77,2.39c-.54,.34-.72,.96-.43,1.53l1.98,3.94c.47,.93-.31,1.79-1.35,1.79-.23,0-.46-.04-.71-.13l-4.71-1.73c-.23-.08-.47-.13-.7-.13-.45,0-.88,.16-1.16,.45l-2.98,3.06c-.3,.31-.72,.45-1.15,.45-.79,0-1.62-.48-1.79-1.24l-.95-4.11c-.14-.59-.71-1.08-1.43-1.21l-4.95-.88c-1.42-.25-1.97-1.76-.89-2.45l3.77-2.39c.54-.34,.72-.96,.43-1.53l-1.98-3.94c-.47-.93,.31-1.79,1.35-1.79,.23,0,.46,.04,.71,.13l4.71,1.73c.23,.08,.47,.13,.7,.13,.45,0,.88-.16,1.16-.45l2.98-3.06c.3-.31,.72-.45,1.15-.45m0-4h0c-1.55,0-2.97,.59-4.02,1.66l-1.89,1.94-3.42-1.25c-.68-.25-1.38-.37-2.08-.37-1.94,0-3.75,.98-4.73,2.56-.94,1.52-1.01,3.39-.19,5.02l.83,1.65-1.62,1.03c-1.83,1.16-2.74,3.26-2.33,5.35,.45,2.26,2.28,3.99,4.66,4.42l3.55,.63,.58,2.53c.58,2.52,2.97,4.35,5.69,4.35,1.55,0,2.97-.59,4.02-1.66l1.89-1.94,3.42,1.25c.68,.25,1.38,.37,2.08,.37,1.94,0,3.75-.98,4.73-2.56,.94-1.52,1.01-3.39,.19-5.02l-.83-1.65,1.62-1.03c1.83-1.16,2.74-3.26,2.33-5.35-.45-2.26-2.28-3.99-4.66-4.42l-3.55-.63-.58-2.53c-.58-2.52-2.97-4.35-5.69-4.35h0Z"/></g><path class="cls-1" d="M108.64,36.24l-1.07-.4c-.77-.29-1.16-1.13-.87-1.88l1.29-3.31c.29-.75,1.16-1.13,1.93-.85l1.07,.4c.77,.29,1.16,1.13,.87,1.88l-1.29,3.31c-.29,.75-1.16,1.13-1.93,.85Z"/><path class="cls-1" d="M122.04,40.23l-1.07-.4c-.77-.28-1.16-1.13-.87-1.88l1.29-3.31c.29-.75,1.16-1.13,1.93-.85l1.07,.4c.77,.28,1.16,1.13,.87,1.88l-1.29,3.31c-.29,.75-1.16,1.13-1.93,.85Z"/><path class="cls-1" d="M134.18,45.21l-1.04-.48c-.74-.35-1.06-1.22-.7-1.95l1.57-3.2c.36-.72,1.25-1.03,2-.69l1.04,.48c.74,.35,1.06,1.22,.7,1.95l-1.57,3.2c-.36,.72-1.25,1.03-2,.69Z"/><path class="cls-1" d="M145.94,52.21l-1.04-.48c-.74-.35-1.06-1.22-.7-1.95l1.57-3.2c.36-.72,1.25-1.03,2-.69l1.04,.48c.74,.35,1.06,1.22,.7,1.95l-1.57,3.2c-.36,.72-1.25,1.03-2,.69Z"/><path class="cls-1" d="M109.62,51.41l-1.07-.4c-.77-.28-1.16-1.13-.87-1.88l1.29-3.31c.29-.75,1.16-1.13,1.93-.85l1.07,.4c.77,.28,1.16,1.13,.87,1.88l-1.29,3.31c-.29,.75-1.16,1.13-1.93,.85Z"/><path class="cls-1" d="M121.22,56.33l-1.04-.48c-.74-.35-1.06-1.22-.7-1.95l1.57-3.2c.36-.72,1.25-1.03,2-.69l1.04,.48c.74,.35,1.06,1.22,.7,1.95l-1.57,3.2c-.36,.72-1.25,1.03-2,.69Z"/><path class="cls-1" d="M132.48,61.32l-1.04-.48c-.74-.35-1.06-1.22-.7-1.95l1.57-3.2c.36-.72,1.25-1.03,2-.69l1.04,.48c.74,.35,1.06,1.22,.7,1.95l-1.57,3.2c-.36,.72-1.25,1.03-2,.69Z"/><path class="cls-1" d="M108.87,66.43l-1.04-.48c-.74-.35-1.06-1.22-.7-1.95l1.57-3.2c.36-.72,1.25-1.03,2-.69l1.04,.48c.74,.35,1.06,1.22,.7,1.95l-1.57,3.2c-.36,.72-1.25,1.03-2,.69Z"/><path class="cls-1" d="M119.86,71.46l-1.04-.48c-.74-.35-1.06-1.22-.7-1.95l1.57-3.2c.36-.72,1.25-1.03,2-.69l1.04,.48c.74,.35,1.06,1.22,.7,1.95l-1.57,3.2c-.36,.72-1.25,1.03-2,.69Z"/></g><path class="cls-4" d="M119.36,88.28c-1.02,19.73-33.53,6.38-40.82-5.12-5.75-9.07-4.22-20.43,3.95-26.98,3.13-2.51,8.18-4.31,12.27-2.21,2.35,1.2,3.68,3.36,4.77,5.41,1.79,3.38,3.34,6.92,6.25,9.8,3.09,3.07,7.52,5.18,10.29,8.44,2.68,3.16,3.48,7.04,3.29,10.67Z"/><path class="cls-4" d="M137.62,100.32c-2.44,.7-4.91,1.18-7.34,1.37-3.35,.26-6.82,.03-9.9-1.29-4.65-2-7.5-6.45-7.03-11.43,1.56-16.25,27.72-14.93,37.47-23.89,1.41-1.3,2.66-2.78,4.27-3.83,8.18-5.31,11.25,8.1,10.56,13.37-1.82,13.85-15.43,22.1-28.04,25.7Z"/><path class="cls-4" d="M96.39,83.25c-.71-9.83,3.77-22.85,14.94-20.42,3.03,.66,5.68,2.74,8.73,3.34,3.87,.75,8.07-.96,11.69,.69,2.42,1.1,4.12,3.53,5.2,6.11,4.86,11.55-2.51,22.62-11.82,28.36-12.79,7.89-25.74-.63-28.42-15.47-.15-.83-.26-1.71-.32-2.61Z"/></g></g></svg>