<svg xmlns="http://www.w3.org/2000/svg" xmlns:xlink="http://www.w3.org/1999/xlink" viewBox="0 0 8.16 12"><defs><style>.cls-1,.cls-2{fill:none;}.cls-1{clip-rule:evenodd;}.cls-3{clip-path:url(#clip-path);}.cls-4{clip-path:url(#clip-path-2);}.cls-5{fill:#9e9e9e;}</style><clipPath id="clip-path" transform="translate(1.09 1.07)"><path class="cls-1" d="M1.54.25,5.71,4.13l0,0,.09.1-.07-.08.1.12,0,0a.79.79,0,0,1,.07.7.72.72,0,0,1-.17.29l0,0L1.51,9.67a.9.9,0,0,1-1.24,0A.84.84,0,0,1,.22,8.52l0,0L3.91,4.81.27,1.42A.79.79,0,0,1,.22.29l.05,0A.94.94,0,0,1,1.54.25Z"/></clipPath><clipPath id="clip-path-2" transform="translate(1.09 1.07)"><rect class="cls-2" x="-254.37" y="-74.07" width="390" height="844"/></clipPath></defs><g id="레이어_2" data-name="레이어 2"><g id="레이어_9" data-name="레이어 9"><g class="cls-3"><g class="cls-4"><rect class="cls-5" width="8.16" height="12"/></g></g></g></g></svg>