<?xml version="1.0" encoding="UTF-8"?><svg id="_이어_2" xmlns="http://www.w3.org/2000/svg" viewBox="0 0 34.9 32.12"><defs><style>.cls-1{fill:#f95f53;}</style></defs><g id="_이어_1-2"><path class="cls-1" d="M.32,7.36c-.53,2.28-.4,4.84,.38,7.6,2.31,8.18,9.18,13.01,16.26,17.02,.15,.09,.32,.13,.49,.13s.34-.04,.49-.13c7.08-4,13.95-8.84,16.26-17.02,.78-2.76,.91-5.32,.38-7.6-1.03-4.48-4.55-7.36-8.98-7.36h-.07c-2.98,.02-6.32,1.55-8.09,4.85C15.68,1.55,12.34,.02,9.36,0h-.07C4.87,0,1.35,2.88,.32,7.36ZM9.3,2h.04c2.69,.02,6.17,1.59,7.12,5.97,.1,.46,.51,.79,.98,.79s.88-.33,.98-.79c.95-4.38,4.43-5.96,7.12-5.97,2.62-.02,6.08,1.5,7.08,5.81,.45,1.95,.33,4.17-.36,6.61-2.06,7.3-8.29,11.8-14.82,15.54-6.53-3.74-12.76-8.24-14.82-15.54-.69-2.44-.81-4.66-.36-6.61C3.26,3.52,6.67,2,9.3,2Z"/></g></svg>