<svg xmlns="http://www.w3.org/2000/svg" viewBox="0 0 173.21 251.13"><defs><style>.cls-1{fill:#efefef;}.cls-13,.cls-2,.cls-3{fill:#fceaea;}.cls-3{stroke:#40220f;}.cls-10,.cls-12,.cls-13,.cls-3,.cls-9{stroke-miterlimit:10;}.cls-10,.cls-13,.cls-3{stroke-width:3px;}.cls-4{fill:#dfbdbc;}.cls-5{fill:#f5b8c1;}.cls-6{fill:#3f210e;}.cls-7{fill:#f08f98;}.cls-8{fill:#3d210d;}.cls-12,.cls-9{fill:none;}.cls-10,.cls-9{stroke:#3b200c;}.cls-9{stroke-width:2px;}.cls-10{fill:#fff;}.cls-11{fill:#c55f1a;}.cls-12{stroke:#bd5d1d;}.cls-13{stroke:#3f210e;}</style></defs><g id="레이어_2" data-name="레이어 2"><g id="레이어_4" data-name="레이어 4"><path class="cls-1" d="M173.21,237c0,7.81-36,14.14-80.47,14.14S12.25,244.8,12.25,237s36-14.14,80.49-14.14S173.21,229.18,173.21,237Z"/><polygon class="cls-2" points="93.28 224.21 125.71 211.76 151.48 161.67 153.32 143.84 149.64 136.48 124.86 140.3 104.04 138.32 76.57 188.98 75.3 210.48 93.28 224.21"/><path class="cls-3" d="M103.32,236.75c-2.23-.05-4.47-.25-6.71-.38-5.61-.32-11.23-.53-16.84-.8-7-.33-13.89-.71-20.84-.89-6.46-.16-12.91-.28-19.37-.42a66.88,66.88,0,0,0-10.3.62c-3.44.45-5.71.69-8.72-1.33-3.78-2.53-6.26-6.5-8-10.64a54.55,54.55,0,0,1-2.87-10c-.51-2.48-1.3-6,2-6.95,1.49-.44,3.08.06,4.57.2A21.63,21.63,0,0,0,20,206c1.86-.14,3.72-.27,5.57-.43.47-.65-.16-3.76-.18-4.61-.23-10,3.53-19.3,7.41-28.28,3.08-7.1,6.47-14.16,11.13-20.38,3.92-5.23,9.14-11.18,15.84-12.57,2.81-.58,5.67-.92,8.52-1.24a205.64,205.64,0,0,1,22.19-1.32c1,0,11.63-.28,11.2,1.91"/><path class="cls-3" d="M109.69,212.54c-3.72,1.11-7,0-10.44-1.32-2.2-.82-4.42-2.59-6.57-.69a15.64,15.64,0,0,0-3.35,5.15c-2.06,4.44-2.17,9.67-1.24,14.39a34.15,34.15,0,0,0,2.27,7.1c.5,1.1,1,2.18,1.65,3.23s.85,2,1.83,2.61,2.33.4,3.49.55,2.56.43,3.84.61q4,.59,8,.86c9.62.63,19.88.15,29.17-2.5a34.2,34.2,0,0,0,12.24-6.22,43.39,43.39,0,0,0,5.08-5,40.63,40.63,0,0,0,4.67-5.75,70,70,0,0,0,6.71-17.1A59.81,59.81,0,0,0,168.68,191a160.56,160.56,0,0,0-4.49-31,197.24,197.24,0,0,1-3.49-21.18c-1.17-9-2.59-18.65-8.61-25.91l-16,.81-24.62,3.59"/><path class="cls-4" d="M69,141.12a10.66,10.66,0,0,1,0,2.42c-.09.51-.76,1.44-.51,2s1.47.63,1.9.74c1.25.33,2.52.59,3.78.8a84.26,84.26,0,0,0,10.39,1.05A85.82,85.82,0,0,0,99,147.45a77.37,77.37,0,0,0,16.63-4,72,72,0,0,0,17.31-9.18q1.83-1.32,3.57-2.74c.6-.49,1.18-1,1.77-1.49s1.46-1,1.74-1.57c0,0,2.7-5.42,2.7-5.42Z"/><path class="cls-4" d="M67.91,141.49a5.78,5.78,0,0,1,.11,2.42c-3.81.36-2.78,1-2.51,1.53s3.57,1,4,1.11c1.25.28,2.53.5,3.81.66a84.28,84.28,0,0,0,10.42.69A85.53,85.53,0,0,0,98,146.77a77.36,77.36,0,0,0,16.48-4.63,71.94,71.94,0,0,0,17-9.78q1.78-1.38,3.47-2.86.87-.76,1.71-1.56c.47-.43,1.44-1.06,1.7-1.63,0,0,2.51-5.5,2.51-5.5Z"/><path class="cls-2" d="M30.93,98.89l-2.25-7.41L53.77,61.05,108.9,19.19l17.3,16.44,24.53,5.7,5.41,7.29.16,9.07s-30,19.59-30.47,19.59-68.41,23-69.55,23.19S30.93,98.89,30.93,98.89Z"/><path class="cls-3" d="M32.05,25.73c-13.14,12-27.56,22.6-30.22,38.88-2.35,9.21,8.17,15.28,17.86,15l1.78-.22"/><path class="cls-3" d="M25.66,97.49l.24.32s.18.8.2,1v0c-1,2.93-17.44,55.48,66.37,42.8,0,0,95.74-7.77,64.88-90.92l-.65-1.53-.42-.62"/><path class="cls-3" d="M26.31,99.47c-.37-1.11-.7-2.24-1-3.37-.83-3-1.53-6-2.13-9A122,122,0,0,1,21.3,74a101.12,101.12,0,0,1-.22-15.47,74.21,74.21,0,0,1,2.8-16.27,55.11,55.11,0,0,1,7.19-15.45,50.25,50.25,0,0,1,13-13,64.25,64.25,0,0,1,20.12-9A111,111,0,0,1,92.81,1.5c6,0,12,.36,18,1,16,1.62,33.42,4.83,45.77,16.21.62.57,1.23,1.17,1.81,1.79,3.12,3.31,5.42,7.46,5.46,12.1,0,4.36-2,9.11-4.56,12.56-4.38,5.81-11.42,3.85-17.58,2.73a57.44,57.44,0,0,1-15.11-4.94,56.86,56.86,0,0,1-19.8-16.27"/><path class="cls-4" d="M8,52.43C11.28,46,20.14,37.68,25.46,33l0,.13c-.29.66-.58,1.32-.86,2-.11.18-.22.35-.34.52s0,0,0,0C7.27,56.3,5.06,72.17,5.06,72.17,4,71.1,3.22,67.37,3.22,67.37,2.9,62.41,8,52.43,8,52.43Z"/><path class="cls-4" d="M152.78,50.64a12.54,12.54,0,0,0,1.33-.27l.28-.1a6,6,0,0,0,.6-.2l.31,0c25.41,60-27.49,80-27.49,80C157.83,101.3,158.3,71.47,152.78,50.64Z"/><path class="cls-5" d="M44.17,109.11a3.05,3.05,0,0,1-2.72,3.35l-6.5.67a3.05,3.05,0,0,1-3.36-2.71h0a3.05,3.05,0,0,1,2.72-3.35l6.51-.68a3,3,0,0,1,3.35,2.72Z"/><path class="cls-5" d="M138.9,96.78a3,3,0,0,1-2.72,3.35l-6.5.68a3.06,3.06,0,0,1-3.36-2.72h0a3.07,3.07,0,0,1,2.73-3.35l6.5-.67a3,3,0,0,1,3.35,2.71Z"/><path class="cls-6" d="M51.94,94.77c.32,2.46-1,4.66-2.93,4.92h0c-1.94.26-3.78-1.52-4.11-4l-.84-6.3C43.73,87,45,84.75,47,84.49h0c1.94-.25,3.78,1.53,4.11,4Z"/><path class="cls-6" d="M117,86.11c.33,2.46-1,4.66-2.92,4.92h0c-1.94.25-3.78-1.53-4.11-4l-.84-6.3c-.33-2.46,1-4.66,2.92-4.92h0c2-.26,3.79,1.52,4.11,4Z"/><path class="cls-4" d="M106.7,103.19c1.31,8.42-4.08,16.17-12,17.31l-19.94,2.87c-8,1.14-15.47-4.76-16.78-13.18h0C56.64,101.77,62,94,70,92.88L89.92,90c8-1.15,15.47,4.75,16.78,13.17Z"/><path class="cls-7" d="M106.24,100.55c1.35,8.68-4.2,16.66-12.4,17.84l-20.55,3c-8.2,1.18-15.94-4.9-17.29-13.57h0c-1.34-8.68,4.21-16.67,12.4-17.84L89,87c8.2-1.18,15.93,4.9,17.28,13.57Z"/><path class="cls-6" d="M73.62,105.37a3.71,3.71,0,0,1-2.94,4.4,3.8,3.8,0,0,1-4.25-3.23,3.71,3.71,0,0,1,2.94-4.39A3.79,3.79,0,0,1,73.62,105.37Z"/><path class="cls-6" d="M95.82,101.78a3.71,3.71,0,0,1-2.94,4.39,3.8,3.8,0,0,1-4.25-3.23,3.71,3.71,0,0,1,2.94-4.39A3.8,3.8,0,0,1,95.82,101.78Z"/><path class="cls-8" d="M112.18,132.09s2.56.41,1.32,2.64l-51.8,5.48-1.53-1.32Z"/><path class="cls-8" d="M112.43,128s1.26.57.63,2.64l-51.79,5.48-1.54-1.31Z"/><path class="cls-9" d="M52.63,161.5A6.39,6.39,0,0,0,51,157.34c-3.74-4-9.58.66-14.21-.73C31.52,155,28,149.77,25.56,145.19"/><path class="cls-9" d="M56.43,155.35s-3.59-7.29-14.57-6.19c-5.22.52-9.68-4.26-12.67-7.92-1.33-1.63-4.83-6.27-7.29-5.55"/><path class="cls-9" d="M59.58,154.26c-3.22-3.31-6.43-7.17-10.86-8.88-2.48-1-10.4-1.16-11-4.55"/><path class="cls-10" d="M48.32,164.18s3,19.55,14.94,22.93l23.13-.56s13.79-5.77,14.6-23.17"/><polygon class="cls-10" points="63.27 187.11 63.27 190.49 86.39 190.49 86.39 186.55 63.27 187.11"/><path class="cls-10" d="M48.18,163.93c0,1.61,3.1,2.33,4.27,2.88a26.78,26.78,0,0,0,7.16,2,71.32,71.32,0,0,0,21.73,0A102.17,102.17,0,0,0,92,166.64a34.63,34.63,0,0,0,9-3.21c.67-.39-3.1-2.1-3.31-2.16-8.66-2.74-17.71-4.79-26.89-4a63.39,63.39,0,0,0-12.06,2.29,74,74,0,0,0-7.29,2.26,9.72,9.72,0,0,0-2.85,1.21A1.15,1.15,0,0,0,48.18,163.93Z"/><path class="cls-11" d="M61.58,168.22a.68.68,0,0,0,.18.29.81.81,0,0,0,1,0,2.2,2.2,0,0,0,.63-.87c3.08-6.32,2.65-13.8,1.08-20.66-.66-2.9-1.59-6.23-.14-9A8.12,8.12,0,0,1,69,134.18a24.45,24.45,0,0,1,6.08-1,11,11,0,0,0,3-.5,2.21,2.21,0,0,0-1.93-.59c-3.48.07-7.14.17-10.36,1.63s-4.55,4.77-4.2,8.2c.24,2.4,1.09,4.7,1.53,7.07,1.12,6.1-.56,12.31-1.55,18.43A1.91,1.91,0,0,0,61.58,168.22Z"/><path class="cls-11" d="M72,168.1a2,2,0,0,0,.1.32c.56,1.43,1.7.46,1.82-.66a24.67,24.67,0,0,0-.33-5.56,36.39,36.39,0,0,0-.63-4.88c-.86-3.3-3.15-6.5-4.66-9.56-1.78-3.6-2-7.1,1.17-10,1.58-1.43,2.93-3.19,4.84-4.15-2.11-.17-4.44-.27-6.12,1-2.71,2.07-3.85,7.59-3,10.71,1,3.77,3.51,7,4.54,10.71.51,1.84,1,3.7,1.39,5.56.3,1.33.59,2.67.79,4C72.05,166.4,71.84,167.3,72,168.1Z"/><path class="cls-12" d="M56.07,166.62s-.78-5.23,7.94-7.35"/><path class="cls-12" d="M58.42,167.61s2.27-5.49,5.07-5.47"/><path class="cls-12" d="M61.8,168.21s2.12-4.74,4.77-4.29"/><path class="cls-12" d="M71.69,163.89s11.18-8.52,22.7,1.24"/><path class="cls-12" d="M73.29,167.05s9.29-6.82,16.83-.79"/><path class="cls-12" d="M75.32,168.26A9.91,9.91,0,0,1,86.5,167"/><path class="cls-13" d="M33.32,166c-3.05,3.9-2.45,10.36,2.48,15.47s11,7.71,14.57,4.28,1-11.06-1.67-16.7C45.68,162.6,39.37,158.24,33.32,166Z"/><path class="cls-4" d="M33.43,169.13s-.7,7.05,11.26,16.33c0,0-1.91-.45-5.92-3.24C38.77,182.22,31.27,176.5,33.43,169.13Z"/><path class="cls-13" d="M158.82,154.27c-2.6,10.14-3.12,27.6-18.1,25-14.72-2.56-11.4-21-20.8-29.17-1.53-1.33-4.66-1.86-5.75-3.38-6.61-9.23-8.14-26,7.37-25.66,8.45.19,9.84,6.77,13,13.27,0,0,5.42-6.34,9.42-2.9"/><path class="cls-4" d="M14.64,207.67s-3.84-1.33-3.89,1.92c0,0,1.38,10.64,4.48,15.56,0,0,3.69,7.14,8.67,8.42C23.9,233.57,14.05,210.72,14.64,207.67Z"/><path class="cls-4" d="M97.38,212.23s-2.95-2.69-5,1A19.65,19.65,0,0,0,89.15,227s.95,8.28,3.43,11.56l1.74,3.16a3.24,3.24,0,0,0,2.32.42S94.32,213.55,97.38,212.23Z"/></g></g></svg>