<svg xmlns="http://www.w3.org/2000/svg" xmlns:xlink="http://www.w3.org/1999/xlink" viewBox="0 0 21 22"><defs><style>.cls-1{fill:none;}.cls-2{clip-path:url(#clip-path);}.cls-3{clip-path:url(#clip-path-2);}.cls-4{fill:#ebebeb;}.cls-5{clip-path:url(#clip-path-3);}</style><clipPath id="clip-path" transform="translate(1 1)"><path class="cls-1" d="M8.67.35.32,9.05A1.15,1.15,0,0,0,1.15,11h16.7a1.15,1.15,0,0,0,.83-1.95L10.32.35A1.14,1.14,0,0,0,9.5,0,1.18,1.18,0,0,0,8.67.35Z"/></clipPath><clipPath id="clip-path-2" transform="translate(1 1)"><rect class="cls-1" x="-35" y="-56" width="390" height="844"/></clipPath><clipPath id="clip-path-3" transform="translate(1 1)"><path class="cls-1" d="M17,8.22V18.78a1.27,1.27,0,0,1-.38.88,1.15,1.15,0,0,1-.85.34H13a1.22,1.22,0,0,1-1.19-1.25V14.86a1.23,1.23,0,0,0-1.24-1.22h-2a1.23,1.23,0,0,0-1.24,1.22v3.89A1.22,1.22,0,0,1,6.05,20H3.23A1.23,1.23,0,0,1,2,18.78V8.22A1.23,1.23,0,0,1,3.23,7H15.76a1.16,1.16,0,0,1,.86.34A1.27,1.27,0,0,1,17,8.22Z"/></clipPath></defs><g id="레이어_2" data-name="레이어 2"><g id="레이어_9" data-name="레이어 9"><g class="cls-2"><g class="cls-3"><rect class="cls-4" width="21" height="13"/></g></g><g class="cls-5"><g class="cls-3"><rect class="cls-4" x="2" y="6.98" width="17" height="15.02"/></g></g></g></g></svg>