<svg xmlns="http://www.w3.org/2000/svg" viewBox="0 0 201.22 337.79"><defs><style>.cls-1{fill:#fafafa;}.cls-14,.cls-2{fill:#b8443d;}.cls-13,.cls-14,.cls-15,.cls-2,.cls-3,.cls-4{stroke:#3a1f0b;}.cls-15,.cls-2,.cls-4{stroke-linecap:round;}.cls-13,.cls-14,.cls-16,.cls-2,.cls-3,.cls-4,.cls-5,.cls-6,.cls-9{stroke-miterlimit:10;}.cls-13,.cls-14,.cls-15,.cls-16,.cls-2,.cls-3,.cls-4,.cls-9{stroke-width:3px;}.cls-3{fill:#f1d0ce;}.cls-4{fill:#dfe3e7;}.cls-5{fill:#3f220e;stroke:#3e210e;stroke-width:5px;}.cls-16,.cls-6,.cls-8,.cls-9{fill:#fceaea;}.cls-16,.cls-6{stroke:#3f210e;}.cls-6{stroke-width:2px;}.cls-7{fill:#dfbdbc;}.cls-9{stroke:#40220f;}.cls-10{fill:#f5b8c1;}.cls-11{fill:#3f210e;}.cls-12{fill:#f08f98;}.cls-13{fill:#eb5e52;}.cls-15{fill:#fdf5ce;stroke-linejoin:round;}</style></defs><g id="레이어_2" data-name="레이어 2"><g id="레이어_4" data-name="레이어 4"><ellipse class="cls-1" cx="110.39" cy="288.75" rx="98.06" ry="32.24" transform="translate(-106.05 68.03) rotate(-23.52)"/><path class="cls-2" d="M142.28,180.14,163.2,186s-1.4,86.07-1.4,86.15c0,.59-17.05.46-18.71.26a22.3,22.3,0,0,1-16.27-9.71c-2.2-3.15-6.28-9.14-6.28-13v-54.6Z"/><path class="cls-2" d="M185.67,228.52c0,24.17-11,43.76-24.67,43.76s-24.62-17.21-24.62-41.38,12.49-44.7,26.11-44.7S185.67,204.35,185.67,228.52Z"/><path class="cls-3" d="M180.05,228.72c0,17.63-7.55,31.92-16.86,31.92s-16.84-12.56-16.84-30.19,8.54-32.6,17.85-32.6S180.05,211.09,180.05,228.72Z"/><ellipse class="cls-4" cx="164.38" cy="228.42" rx="3.72" ry="7.84"/><path class="cls-2" d="M14.58,268.33c-2.89,14.62,2.85,34,14.33,43.76,5.17,4.41,12.17,6,18.63,7.52a76.26,76.26,0,0,0,12.55,2.08c2,.13,9.69.9,11-1.12l6.47-9.89-7.73-15.07L58.4,281.17l-1.95-13.35L15,266.37Z"/><path class="cls-2" d="M104.18,273.75c-.8,12.88-4.13,29.08-13.44,38.89a28,28,0,0,1-18.16,9.09C50.88,323.28,42,299.9,42,279.05a37,37,0,0,1,9.5-24.59c8.93-10,27-17.24,39.91-11.09C102.55,248.67,104.86,262.66,104.18,273.75Z"/><path class="cls-3" d="M95.14,277.83a51.47,51.47,0,0,1-2.84,15.59,29.48,29.48,0,0,1-7.37,12.12c-3.51,3.25-8.38,5.24-13.1,4.52-5.52-.85-10-5.27-12.25-10.38S57,288.85,57,283.26c.06-9.35,1.73-21,10.26-26.74,7.11-4.78,17.63-5.36,23.26,2,2.69,3.51,3.83,8,4.33,12.39A53.49,53.49,0,0,1,95.14,277.83Z"/><ellipse class="cls-4" cx="76.56" cy="281.46" rx="6.07" ry="7.84" transform="translate(-22.28 7.03) rotate(-4.59)"/><path class="cls-3" d="M104.47,166.48H153.1c-.52,3.81-1.48,7.57-1.56,11.43,0,1.81.63,3.52.67,5.22,0,1.46.61.65-.15,2.1s-3.21,2.41-4.58,3.51c-1.54,1.25-2.15,2.87-2.9,4,0,0-12.82,18.78-3.92,45L106,269.44l-4.6-16.39,2.88-3.82S95.44,228.07,81.45,225C81.45,225,87.74,180.84,104.47,166.48Z"/><path class="cls-5" d="M147.66,136.85c.81,1.6,1.49,3.42,2.54,5.35,2.24,4.11,5.46,7.62,8,11.57,8.67,13.74,7.67,32.31-.49,46.36-3.23,5.57-7.46,10.53-10.44,16.24A43,43,0,0,0,145.61,252a5.34,5.34,0,0,1,.61,3.51,5,5,0,0,1-2.44,2.46,99,99,0,0,1-24,10.32c-2.53.7-5.6,1.18-7.45-.68a7.77,7.77,0,0,1-1.68-3.61c-2.86-10.65-8.54-21.7-7.79-33,.19-3,1.55-6.08,4.14-7.58a57.83,57.83,0,0,1-25.35.14c3.69.82,1.95,27.8-1,30a4,4,0,0,1-2.41.56L55,254.56c-1.73,0-3.63,0-5-1.12-1.75-1.49-1.68-4.15-1.51-6.45a177.3,177.3,0,0,0-.11-28.13,13.88,13.88,0,0,0-.83-4.25,14.16,14.16,0,0,0-3.32-4.36c-7-7-14.24-14.67-16.84-24.5-2.4-9.06-.41-18.67,2.92-27.22a56.69,56.69,0,0,1,7.67-13c1.71-2.29,4.13-4.08,5.71-6.47,1.73-2.6,1.65-5.39,5.29-6.28,3.25-.81,7.13,0,10.47,0,18.43,0,37,1.19,55.39-.66C124.34,131.25,142,125.66,147.66,136.85Z"/><path class="cls-6" d="M147.66,136.85c.81,1.6,1.49,3.42,2.54,5.35,2.24,4.11,5.46,7.62,8,11.57,8.67,13.74,7.67,32.31-.49,46.36-3.23,5.57-7.46,10.53-10.44,16.24A43,43,0,0,0,145.61,252a5.34,5.34,0,0,1,.61,3.51,5,5,0,0,1-2.44,2.46,99,99,0,0,1-24,10.32c-2.53.7-5.6,1.18-7.45-.68a7.77,7.77,0,0,1-1.68-3.61c-2.86-10.65-8.54-21.7-7.79-33,.19-3,1.55-6.08,4.14-7.58a57.83,57.83,0,0,1-25.35.14c3.69.82,1.95,27.8-1,30a4,4,0,0,1-2.41.56L55,254.56c-1.73,0-3.63,0-5-1.12-1.75-1.49-1.68-4.15-1.51-6.45a177.3,177.3,0,0,0-.11-28.13,13.88,13.88,0,0,0-.83-4.25,14.16,14.16,0,0,0-3.32-4.36c-7-7-14.24-14.67-16.84-24.5-2.4-9.06-.41-18.67,2.92-27.22a56.69,56.69,0,0,1,7.67-13c1.71-2.29,4.13-4.08,5.71-6.47,1.73-2.6,1.65-5.39,5.29-6.28,3.25-.81,7.13,0,10.47,0,18.43,0,37,1.19,55.39-.66C124.34,131.25,142,125.66,147.66,136.85Z"/><path class="cls-7" d="M111.32,263.18c.12.51,1.49,5.6,5.65,4.6,0,.27,7.17-1.5,12.15-3.65,0,0,13.28-5.36,15.51-8.26,0,0,.91-.9-.21-4.05l-.72-1.89Z"/><path class="cls-7" d="M107.16,222.55a44.41,44.41,0,0,1-10.3,1.56,75.73,75.73,0,0,1-8.25-.43c-2-.17-3.92-.13-5.91-.2a35.27,35.27,0,0,1-4.92-.44c-.78-.13-2.51-.33-2.9-1.19s.55-1.42,1.1-1.79c.1-.07,8.56-1.87,8.56-1.87a78.22,78.22,0,0,0,25.91,3.29C109.38,221.89,108.28,222.24,107.16,222.55Z"/><path class="cls-7" d="M62.4,143.65a11.66,11.66,0,0,1-.65,2.59c-.23.51-1.21,1.32-1.08,1.93s1.39,1.08,1.81,1.32c1.23.69,2.51,1.33,3.8,1.91a92.19,92.19,0,0,0,10.76,4,94.58,94.58,0,0,0,15.42,3.33,81.88,81.88,0,0,0,41.69-5.27c2.83-1.18,6.23-2.25,8.28-4.66.47-.55,2.78-3.9,3.4-3.89Z"/><path class="cls-7" d="M60.22,150.76a6.48,6.48,0,0,1-.31,2.64c-4.2-.29-3.21.62-3,1.21s3.68,1.74,4.13,1.92c1.31.53,2.65,1,4,1.4a91,91,0,0,0,11.17,2.62,93.68,93.68,0,0,0,15.68,1.34,85,85,0,0,0,18.68-2,79,79,0,0,0,20.16-7.56q2.18-1.17,4.27-2.48c.72-.45,1.43-.9,2.13-1.37a8.58,8.58,0,0,0,2.13-1.47l3.71-5.51Z"/><path class="cls-8" d="M27.82,97.94l-1.11-8.43L59.36,61,126.6,25.55l15.78,20.93,25.54,10.58,4.56,8.87L171,75.8s-36,15.85-36.53,15.76S56.27,104.16,55,104.2,27.82,97.94,27.82,97.94Z"/><path class="cls-9" d="M42.18,18.84C25.8,29.44,8.27,38.39,2.46,55.56c-4.2,9.55,6.1,18,16.64,19.49l2,.08"/><path class="cls-9" d="M22.36,95.48l.2.39s.06.9,0,1.13c0,0,0,0,0,0-1.58,3-28.85,57,64.2,58.32,0,0,105.1,8.77,86.63-86.91L173,66.69l-.35-.75"/><path class="cls-9" d="M22.71,97.74c-.21-1.27-.36-2.55-.5-3.83-.36-3.37-.58-6.76-.68-10.16a134.36,134.36,0,0,1,.32-14.47,112,112,0,0,1,2.54-16.81,81.92,81.92,0,0,1,6-17.14A60.75,60.75,0,0,1,40.92,19.87,55,55,0,0,1,57.31,8.07,70.86,70.86,0,0,1,80.72,1.94a122,122,0,0,1,31.63,1.54c6.49,1.09,12.92,2.55,19.27,4.27C148.71,12.38,167,19,178.28,33.54c.57.73,1.12,1.49,1.64,2.26,2.78,4.15,4.53,9.07,3.74,14.1-.74,4.74-3.75,9.52-7.2,12.8-5.79,5.51-13.06,2.12-19.53-.2a62.87,62.87,0,0,1-15.48-8.07,62.41,62.41,0,0,1-18.52-21.2"/><path class="cls-7" d="M11.37,43.47C16,37.11,27.13,29.66,33.73,25.55l-.06.14-1.28,2-.46.51,0,0C9.85,47.52,4.6,64.32,4.6,64.32,3.63,63,3.47,58.8,3.47,58.8,4,53.36,11.37,43.47,11.37,43.47Z"/><path class="cls-7" d="M168.47,67.52a14.74,14.74,0,0,0,1.49,0l.32-.06c.23,0,.46-.06.69-.11a3.2,3.2,0,0,0,.33.07C188,137,127.15,149.18,127.15,149.18,164.84,123.34,170.71,91.09,168.47,67.52Z"/><path class="cls-10" d="M41.57,104.55A3.34,3.34,0,0,1,38,107.69l-7.17-.43a3.35,3.35,0,0,1-3.14-3.55h0a3.35,3.35,0,0,1,3.55-3.14l7.17.43a3.35,3.35,0,0,1,3.14,3.55Z"/><path class="cls-10" d="M146.39,108.2a3.36,3.36,0,0,1-3.55,3.15l-7.16-.44a3.36,3.36,0,0,1-3.15-3.55h0a3.36,3.36,0,0,1,3.55-3.14l7.17.44a3.33,3.33,0,0,1,3.14,3.54Z"/><path class="cls-11" d="M52.56,90.41c-.09,2.72-1.91,4.87-4.06,4.8h0c-2.15-.06-3.82-2.33-3.74-5l.23-7c.08-2.72,1.9-4.87,4-4.81h0c2.15.07,3.82,2.34,3.74,5.06Z"/><path class="cls-11" d="M124.6,92.7c-.08,2.73-1.9,4.88-4,4.81h0c-2.15-.07-3.83-2.33-3.74-5.05l.22-7c.09-2.72,1.91-4.87,4.06-4.8h0c2.15.07,3.82,2.33,3.73,5Z"/><path class="cls-7" d="M110.36,109.37c-.1,9.36-7.33,16.79-16.15,16.6l-22.12-.47c-8.82-.19-15.89-7.94-15.8-17.3h0c.1-9.36,7.33-16.8,16.15-16.61l22.12.48c8.82.19,15.9,7.93,15.8,17.3Z"/><path class="cls-12" d="M110.34,106.42c-.1,9.65-7.55,17.31-16.64,17.12L70.91,123c-9.09-.19-16.38-8.17-16.28-17.82h0c.1-9.65,7.55-17.31,16.63-17.11l22.8.49c9.09.2,16.38,8.18,16.28,17.82Z"/><path class="cls-11" d="M74.14,105.79a4.09,4.09,0,0,1-4,4.24,4.17,4.17,0,0,1-4-4.26,4.08,4.08,0,0,1,4-4.24A4.18,4.18,0,0,1,74.14,105.79Z"/><path class="cls-11" d="M98.83,105.88a4.08,4.08,0,0,1-4,4.23,4.16,4.16,0,0,1-4-4.26,4.07,4.07,0,0,1,4-4.23A4.18,4.18,0,0,1,98.83,105.88Z"/><path class="cls-13" d="M13.84,265.71,47,274.38l36.91-48.51-45.21-3.64S16.71,235.47,13.84,265.71Z"/><path class="cls-2" d="M132.06,198.43l-31-4.83a7.56,7.56,0,0,1-6.3-8.62h0a7.58,7.58,0,0,1,8.62-6.3l31,4.82a7.59,7.59,0,0,1,6.31,8.63h0A7.59,7.59,0,0,1,132.06,198.43Z"/><path class="cls-2" d="M39.48,184l-20.32-3.16a7.58,7.58,0,0,1-6.3-8.62h0A7.58,7.58,0,0,1,21.48,166l20.32,3.16a7.58,7.58,0,0,1,6.3,8.62h0A7.58,7.58,0,0,1,39.48,184Z"/><path class="cls-13" d="M46.62,167.54c1.33,3-4.62,6-6.39,7.37A31,31,0,0,0,31.09,186c-5.12,10.73-4.53,23.61,3.85,32.54,6.74,7.17,17.11,7.89,26.33,7.16,11.36-.91,22.65-2.68,32.78-8.23l8.68-4.76,1.68-12.39c0-.06-4.06-2-4.37-2.26-4.17-2.87-5.26-7.72-4.71-12.52.4-3.49,1.86-6.72,3-10,.28-.82,1.54-2.1,1.74-2.95.28-1.22-.57-.66-1.6-1.08-1.44-.58-3.5-.18-5-.42-.59-.09-5.39-1.38-5.74-1l-7,8.42s-27.35-.35-30.1-1.81C50.54,176.73,46.62,167.55,46.62,167.54Z"/><path class="cls-14" d="M87.56,171.62,79.33,180c-3.44,3.51-9.58,2.65-13.92,1.91-5.14-.87-11.67-1.45-15.55-5.33-4.47-4.47-4.52-11.49-3.46-17.31,1.45-7.94,4.16-16.08,9.9-22,9.58-9.84,24.23-6.87,33.33,2.17,6.15,6.1,12.69,13.76,12.65,23a20.49,20.49,0,0,1-.85,5.39c-.09.33-1.24,4.73-1.38,4.71-2.09-.23-4.4-.29-6.49-.47C92.79,172.06,88.09,171.08,87.56,171.62Z"/><polygon class="cls-15" points="93.06 198.59 91.47 210.36 81.76 214.23 63.95 216.08 75.83 201.31 93.06 198.59"/><path class="cls-13" d="M47.69,273.57s52.64-16.23,58.35-24.41c1.38-2-6.71-13.38-7.85-14.87-8-10.52-23.08-11.44-33.1-3.27C53.36,240.59,48.89,259.45,47.69,273.57Z"/><path class="cls-16" d="M142.5,184.59c-3.2,6.93-12.49,10.66-23,7.49s-18.34-9.68-16.14-17,14.51-9.12,24.11-9.46C138.44,165.26,148.86,170.84,142.5,184.59Z"/><path class="cls-7" d="M139.05,187c-16,9.07-33.91-6.52-33.91-6.52,4.36,9.3,19.14,11.05,19.14,11.05,9.09,1.18,14.1-3.73,14.77-4.41C139.06,187.06,139,187,139.05,187Z"/><path class="cls-16" d="M12.19,160.43c1,6.41,7.74,11.64,17.07,11.5s17.26-3.65,17.17-10.14-9.75-10.85-17.53-13.36C20,145.56,10.2,147.69,12.19,160.43Z"/><path class="cls-7" d="M43.21,166S27,173.79,15,163.73c0,0,2.84,5.58,11.17,6.54C26.13,170.27,38.14,171.51,43.21,166Z"/></g></g></svg>