<svg xmlns="http://www.w3.org/2000/svg" viewBox="0 0 212.74 246.4"><defs><style>.cls-1,.cls-4,.cls-5{fill:#fceaea;}.cls-1,.cls-10,.cls-9{stroke:#3f210e;}.cls-1,.cls-10,.cls-5,.cls-9{stroke-miterlimit:10;stroke-width:3px;}.cls-2,.cls-3{fill:#dfbdbc;}.cls-2{fill-rule:evenodd;}.cls-5{stroke:#40220f;}.cls-6{fill:#f5b8c1;}.cls-7{fill:#3f210e;}.cls-8{fill:#f08f98;}.cls-9{fill:#efefef;}.cls-10{fill:#cecece;}</style></defs><g id="레이어_2" data-name="레이어 2"><g id="레이어_4" data-name="레이어 4"><path class="cls-1" d="M152.9,205.08a6.84,6.84,0,0,1-.05-1c.07-1.91,1.08-3.65,2-5.32a95.42,95.42,0,0,0,7.27-75.09,5.13,5.13,0,0,0-1.2-2.24,5.28,5.28,0,0,0-2.53-1,157.78,157.78,0,0,1-60-27.66,27.7,27.7,0,0,1-6.51-6.22,30,30,0,0,1-3.11-6.55A152.87,152.87,0,0,0,73.08,50.21c-6.85-10.39-18-22.34-30.54-10.35-5,4.8-4.11,12.94-2.67,19.75,3.67,17.44,8.25,35,17.36,50.31a4.54,4.54,0,0,1,.88,2.38c0,1.22-1,2.17-1.91,3-4.82,4.38-9.44,9.2-12.2,15.09-4.14,8.82-3.67,19.16-1.4,28.63.78,3.22,1.27,7.54-1.71,9a8.87,8.87,0,0,1-4.08.37,18.91,18.91,0,0,0-13.39,5A6.84,6.84,0,0,0,21,177.52a8.26,8.26,0,0,0,.74,3.57q3,8.31,6.07,16.61c1.43,3.91,3.41,8.34,7.44,9.37,5.28,1.36,9.61-3.92,14.19-6.88,5.8-3.75,13.21-3.95,20-3,20.14,2.87,39.32,16.22,45.85,35.49,1.38,4.08,2.54,8.8,6.28,10.94,2.46,1.41,5.46,1.31,8.28,1.18l22-1c2.11-.1,4.36-.25,6-1.52,2.78-2.09,2.84-6.18,2.44-9.63a88.18,88.18,0,0,0-6.14-23.57A15.63,15.63,0,0,1,152.9,205.08Z"/><path class="cls-2" d="M99.82,173.31c-.15-.76-.15-.76.45-1.15a5.3,5.3,0,0,0,.54-.39.73.73,0,0,0,.26-.91.89.89,0,0,0-.89-.61.76.76,0,0,0-.77.56,2.57,2.57,0,0,0-.13,1.13c0,.51.1,1,.13,1.51a.45.45,0,0,0,.34.45,2.57,2.57,0,0,0,3.09-1.29,2.52,2.52,0,0,0-.93-3.21c-.87-.48-1.79-.87-2.68-1.31-.21-.1-.28,0-.36.15-.63,1.35-1.26,2.7-1.9,4-.1.21-.06.31.15.39s.51.24.77.36a.52.52,0,0,1,.34.38c0,.19.09.43,0,.55s-.29-.07-.43-.13l-1.46-.68a.49.49,0,0,1-.28-.75c.78-1.64,1.56-3.3,2.33-5,.12-.24.27-.49.57-.34a23.08,23.08,0,0,1,3.63,1.79,3.22,3.22,0,0,1,.86,4.32,3.33,3.33,0,0,1-4.24,1.29.8.8,0,0,1-.51-.71c-.05-.7-.11-1.39-.16-2.09a2.56,2.56,0,0,1,.15-1.13,1.55,1.55,0,0,1,1.54-1.13,1.7,1.7,0,0,1,1.59,1,1.72,1.72,0,0,1-.36,1.89A5.37,5.37,0,0,1,99.82,173.31Z"/><path class="cls-3" d="M147.76,128.76a5.2,5.2,0,0,0-.23,2.16c3.4.52,2.45,1.07,2.17,1.51s-3.25.72-3.64.79c-1.14.18-2.3.31-3.45.39a73.54,73.54,0,0,1-9.39.08,76.22,76.22,0,0,1-12.76-1.76,69.73,69.73,0,0,1-14.55-5,65.2,65.2,0,0,1-14.73-9.67q-1.53-1.34-3-2.76c-.49-.48-1-1-1.45-1.48s-1.23-1-1.44-1.55l-2-5.08Z"/><path class="cls-4" d="M183.16,92.43l2.41-6.54L164.64,57.25,117.35,16.79,101,30.65l-22.3,3.84-5.24,6.26-.62,8.14S98.67,68,99.13,68.08s60.19,24.18,61.2,24.44S183.16,92.43,183.16,92.43Z"/><path class="cls-5" d="M186,26.66c11.16,11.43,23.54,21.73,25.08,36.5,1.63,8.38-8.12,13.29-16.8,12.56l-1.59-.29"/><path class="cls-5" d="M188,91.44l-.23.28s-.21.71-.23.9a.08.08,0,0,0,0,0c.73,2.68,12.76,50.73-61.79,35,0,0-85.51-12-53.49-85l.67-1.34.41-.54"/><path class="cls-5" d="M187.28,93.18c.39-1,.75-2,1.09-3,.9-2.63,1.69-5.3,2.38-8a109.66,109.66,0,0,0,2.35-11.62,92.12,92.12,0,0,0,1-13.88A67.21,67.21,0,0,0,192.44,42a49.63,49.63,0,0,0-5.65-14.26,44.84,44.84,0,0,0-11-12.37,57.63,57.63,0,0,0-17.58-9.12,99.35,99.35,0,0,0-25.54-4.48,161.31,161.31,0,0,0-16.16-.07c-14.48.61-30.24,2.59-41.92,12.17-.59.48-1.16,1-1.71,1.51-3,2.81-5.26,6.42-5.54,10.59a19.63,19.63,0,0,0,3.44,11.51c3.63,5.45,10.05,4,15.63,3.37a52,52,0,0,0,13.82-3.65,51.15,51.15,0,0,0,18.62-13.58"/><path class="cls-6" d="M166.35,95.39a2.9,2.9,0,0,0,2.06,3.53l6,1.57a2.89,2.89,0,0,0,3.52-2.06h0a2.88,2.88,0,0,0-2.06-3.53l-6-1.57a2.9,2.9,0,0,0-3.53,2.06Z"/><path class="cls-6" d="M79.58,70.27a2.9,2.9,0,0,0,2.06,3.53l6,1.56a2.88,2.88,0,0,0,3.52-2.06h0a2.88,2.88,0,0,0-2.07-3.52l-6-1.57a2.89,2.89,0,0,0-3.52,2.06Z"/><path class="cls-7" d="M161.83,76.47c-.66,2.25.25,4.5,2,5h0c1.78.52,3.75-.88,4.41-3.13L170,72.58c.66-2.25-.25-4.5-2-5h0c-1.78-.52-3.76.89-4.42,3.14Z"/><path class="cls-7" d="M102.25,59c-.66,2.26.25,4.5,2,5h0c1.77.52,3.75-.88,4.41-3.13l1.69-5.77c.66-2.25-.25-4.5-2-5h0c-1.78-.52-3.75.88-4.41,3.13Z"/><path class="cls-3" d="M108.76,80.88c-2.43,7.7,1.49,15.72,8.76,17.93l18.23,5.54c7.28,2.21,15.14-2.23,17.57-9.92h0c2.44-7.68-1.49-15.71-8.76-17.92L126.33,71c-7.27-2.21-15.14,2.23-17.57,9.91Z"/><path class="cls-8" d="M109.56,78.48c-2.5,7.93,1.54,16.19,9,18.47l18.79,5.71c7.49,2.28,15.6-2.3,18.1-10.22h0c2.51-7.92-1.53-16.19-9-18.46l-18.79-5.71c-7.49-2.28-15.6,2.29-18.11,10.21Z"/><path class="cls-7" d="M139.36,87.68a3.52,3.52,0,0,0,2.12,4.53,3.6,3.6,0,0,0,4.44-2.41,3.52,3.52,0,0,0-2.12-4.53A3.59,3.59,0,0,0,139.36,87.68Z"/><path class="cls-7" d="M119.13,81.12a3.53,3.53,0,0,0,2.12,4.54,3.59,3.59,0,0,0,4.44-2.41,3.52,3.52,0,0,0-2.12-4.53A3.6,3.6,0,0,0,119.13,81.12Z"/><path class="cls-3" d="M206.13,51.89C203.56,46,196,38,191.51,33.55a.5.5,0,0,0,0,.12l.67,1.83.27.48a0,0,0,0,1,0,0c14.14,19.4,15.29,33.76,15.29,33.76,1-.91,1.9-4.21,1.9-4.21C210.22,61.12,206.13,51.89,206.13,51.89Z"/><path class="cls-3" d="M76.33,42.75c-.39-.11-.79-.17-1.18-.32l-.24-.1a4.87,4.87,0,0,1-.53-.21,2.61,2.61,0,0,1-.28,0c-25.93,52.57,20.49,73.3,20.49,73.3C69.16,88,70.29,61.16,76.33,42.75Z"/><path class="cls-3" d="M119,239.12,159.28,237s.15,5.71-6.17,5.86l-23.87,1.08A9.46,9.46,0,0,1,119,239.12Z"/><path class="cls-3" d="M26.37,172.7s-6.4,2.72-3.68,7.56c0,0,7,20.65,7.42,20.5,0,0,3.88,9.2,11.29,3.82Z"/><path class="cls-3" d="M115.62,164.12a13.18,13.18,0,0,0,.17,2.77,8.19,8.19,0,0,0,1,2.48c4.18,6.75,13.09,7.88,20.31,8.24,3.91.19,7.83.15,11.74.15a20.44,20.44,0,0,0,8.28-1.28c2.48-1.09,4.45-3.72,5.61-6.17C147,168,131.37,166.4,115.62,164.12Z"/><path class="cls-1" d="M165.48,137.56c0,6-.35,11.89-.81,17.89a62.13,62.13,0,0,1-1.7,11.84c-2.7,9.68-17.5,8.6-25.05,7.78-6.2-.68-20.57-2.38-21.33-10.75a6.12,6.12,0,0,1,0-1.21c.4-3.87,4-13.89,8.63-14.89,6.64-1.43,13.26,6.58,19.53,3.73"/><path class="cls-9" d="M86.38,103.52c-.78-1.93-1.63-3.83-2.57-5.69-3.2-6.33-4.94-13.76-7.55-20.38A185.46,185.46,0,0,0,66.67,57c-1.83-3.38-3.76-6.71-5.75-10-4-6.62-11.17-9.47-18-7.21a16.69,16.69,0,0,0-3.62,1.7C28.44,48.27,25.54,61.76,21.4,72.89L10,103.61,6,114.43c-3.23,8.69-5.28,18.43-4.13,27.73,3.08,24.83,35,23.71,53.68,22.43a153.67,153.67,0,0,0,18.87-2.47,24.94,24.94,0,0,0,19.48-20.9C95.47,129.09,90.85,114.64,86.38,103.52ZM55.74,73.37A17.31,17.31,0,0,1,48,75.12c-2.64.07-5.69.23-8.17-.86A4.75,4.75,0,0,1,37,70.75c-.51-2.72.55-5.41,1.46-7.92,1-2.73,2.07-5.43,3.08-8.16.87-2.31,1.91-4.94,3.91-6.53a2.87,2.87,0,0,1,1.8-.66,4.64,4.64,0,0,1,3.52,2.19A38.42,38.42,0,0,1,54.17,57a59.37,59.37,0,0,1,2.77,8.33C57.49,67.6,58.39,71.94,55.74,73.37Z"/><path class="cls-10" d="M42.64,124.1C39.8,125.71,36.74,124,34,123c-5.77-2.18-12.68-1.41-18.17,1.26C7.45,128.31,4.63,138,8.51,146.3c5.05,10.81,17.28,11.38,27.72,11.11,4.45-.12,8.92-.52,13.37-.15,8.21.68,16,2.32,23.95-.94A27.38,27.38,0,0,0,77.91,154c7.54-4.89,11.5-15.07,7.66-23.59-3.54-7.83-12.85-12.68-21.1-13.83a25.23,25.23,0,0,0-13.2,1.59,20.62,20.62,0,0,0-5.78,3.6A17.64,17.64,0,0,1,42.64,124.1Z"/><line class="cls-1" x1="29.63" y1="95.23" x2="24.85" y2="117.88"/><line class="cls-1" x1="46.93" y1="95.23" x2="48.2" y2="128.45"/><line class="cls-1" x1="62.35" y1="89.94" x2="70.83" y2="119.39"/><path class="cls-3" d="M129.61,3.12c-4.94-.1-9.89-.09-14.83.1-4.53.19-9.12.27-13.55,1.3C91.06,6.9,80.45,9.09,72.94,17a13.47,13.47,0,0,0-4.11,8.91s-.1,5.81,2.21,9c-.45-.61-.23-2.69-.23-3.47a19.71,19.71,0,0,1,.38-4.05c.84-4,4.23-6.77,7.32-9.17A66.07,66.07,0,0,1,98,8.09,101,101,0,0,1,129.61,3.12Z"/></g></g></svg>