<svg xmlns="http://www.w3.org/2000/svg" xmlns:xlink="http://www.w3.org/1999/xlink" viewBox="0 0 22 15"><defs><style>.cls-1{fill:none;}.cls-2{clip-path:url(#clip-path);}.cls-3{clip-path:url(#clip-path-2);}.cls-4{fill:#ebebeb;}.cls-5{clip-path:url(#clip-path-3);}.cls-6{clip-path:url(#clip-path-5);}</style><clipPath id="clip-path" transform="translate(1 1)"><path class="cls-1" d="M1.5,5h17a1.5,1.5,0,0,1,0,3H1.5a1.5,1.5,0,0,1,0-3Z"/></clipPath><clipPath id="clip-path-2" transform="translate(1 1)"><rect class="cls-1" x="-335" y="-60" width="390" height="844"/></clipPath><clipPath id="clip-path-3" transform="translate(1 1)"><path class="cls-1" d="M1.5,0h17a1.5,1.5,0,0,1,0,3H1.5a1.5,1.5,0,0,1,0-3Z"/></clipPath><clipPath id="clip-path-5" transform="translate(1 1)"><path class="cls-1" d="M1.5,10h17a1.5,1.5,0,0,1,0,3H1.5a1.5,1.5,0,0,1,0-3Z"/></clipPath></defs><g id="레이어_2" data-name="레이어 2"><g id="레이어_9" data-name="레이어 9"><g class="cls-2"><g class="cls-3"><rect class="cls-4" y="5" width="22" height="5"/></g></g><g class="cls-5"><g class="cls-3"><rect class="cls-4" width="22" height="5"/></g></g><g class="cls-6"><g class="cls-3"><rect class="cls-4" y="10" width="22" height="5"/></g></g></g></g></svg>