<svg xmlns="http://www.w3.org/2000/svg" xmlns:xlink="http://www.w3.org/1999/xlink" viewBox="0 0 14 14"><defs><style>.cls-1,.cls-2{fill:none;}.cls-2{clip-rule:evenodd;}.cls-3{clip-path:url(#clip-path);}.cls-4{clip-path:url(#clip-path-2);}.cls-5{fill:#f95f53;}.cls-6{clip-path:url(#clip-path-3);}.cls-7{fill:#fff;}</style><clipPath id="clip-path" transform="translate(1 1)"><circle class="cls-1" cx="6" cy="6" r="6"/></clipPath><clipPath id="clip-path-2" transform="translate(1 1)"><rect class="cls-1" x="-240" y="-126" width="390" height="844"/></clipPath><clipPath id="clip-path-3" transform="translate(1 1)"><path class="cls-2" d="M4.76,3.16,8.27,5.5l0,0,.08.06-.07,0a.42.42,0,0,1,.12.59h0a.43.43,0,0,1-.11.12L4.75,8.82a.92.92,0,0,1-1,0,.45.45,0,0,1-.13-.62l.11-.11L6.75,5.9l-3-2a.42.42,0,0,1-.12-.59.34.34,0,0,1,.12-.12A1,1,0,0,1,4.76,3.16Z"/></clipPath></defs><g id="레이어_2" data-name="레이어 2"><g id="레이어_9" data-name="레이어 9"><g class="cls-3"><g class="cls-4"><rect class="cls-5" width="14" height="14"/></g></g><g class="cls-6"><g class="cls-4"><rect class="cls-7" x="3.44" y="2.95" width="7.12" height="8.11"/></g></g></g></g></svg>