<svg xmlns="http://www.w3.org/2000/svg" viewBox="0 0 158.37 238.74"><defs><style>.cls-1,.cls-2{fill:#fff;}.cls-1,.cls-3,.cls-4,.cls-5,.cls-6{stroke:#40220f;stroke-miterlimit:10;stroke-width:2px;}.cls-3{fill:#b83a37;}.cls-4{fill:#de5b50;}.cls-5{fill:none;}.cls-6{fill:#eb5d52;}</style></defs><g id="레이어_2" data-name="레이어 2"><g id="레이어_9" data-name="레이어 9"><g id="레이어_2-2" data-name="레이어 2"><g id="레이어_9-2" data-name="레이어 9"><path class="cls-1" d="M157.37,109.11V82.7L115.78,52.29l41.56-25.38V1.78L75.91,51.12l-32.43-21a15,15,0,0,1-3.57,3.59c-4.79,3.46-9.82,6.57-14.5,10.18-.17.13-.34.22-.51.34l3.94,2.59L35.15,51l5.71,3.74,5,3.25L50,60.67l3.11,2,2,1.33.84.55L11.39,92.81c-11,8-10.34,17.35-10.34,17.35-1,11.8,13.42,20.6,13.42,20.6l95.68,59.06L31.76,237.69H71.42l48.64-29.49c4.25-2.64,8.71-6.82,10.34-11.71,5.56-16.24-9.14-25-9.14-25L22.15,110.43,95.62,64.61Z"/><polygon class="cls-2" points="156.24 3.6 158.34 2.21 158.34 25 155.9 26.57 151.09 27.27 154.05 10.91 156.24 3.6"/><polygon class="cls-2" points="156.22 83.15 158.36 84.53 158.36 108.55 153.55 105.1 149.75 93.48 151.57 87.16 156.22 83.15"/><path class="cls-2" d="M35.52,236.61,32,238.74H68.09L73.7,235l4.06-6.48s-15.85,4.16-16.14,4.16S35.52,236.61,35.52,236.61Z"/><polygon class="cls-1" points="119.77 67.53 119.77 115.92 119.55 116.06 95.74 131.47 24.66 87.67 24.66 58.66 119.77 67.53"/><polygon class="cls-3" points="119.77 139.34 119.77 115.92 95.74 131.47 95.57 154.59 119.77 139.34"/><polygon class="cls-4" points="24.66 111.06 95.57 153.59 95.74 130.29 24.66 86.78 24.66 111.06"/><line class="cls-5" x1="95.74" y1="131.48" x2="95.74" y2="81.94"/><polygon class="cls-6" points="46.2 24.86 53.5 29.09 22.3 51.41 22.56 60.13 13.76 55.09 13.52 46.99 46.2 24.86"/><polygon class="cls-1" points="103.58 57.97 110.88 62.2 79.68 84.52 79.94 93.25 71.14 88.2 70.9 80.11 103.58 57.97"/><polygon class="cls-6" points="111.6 62.59 118.9 66.83 87.7 89.16 87.95 97.88 79.15 92.83 78.91 84.75 111.6 62.59"/><polygon class="cls-1" points="87.21 48.55 94.51 52.78 63.31 75.11 63.56 83.83 54.77 78.8 54.53 70.69 87.21 48.55"/><polygon class="cls-6" points="95.22 53.19 102.52 57.42 71.33 79.75 71.58 88.47 62.78 83.42 62.54 75.33 95.22 53.19"/><polygon class="cls-1" points="70.31 38.77 77.61 43.01 46.41 65.33 46.66 74.06 37.86 69.02 37.62 60.91 70.31 38.77"/><polygon class="cls-6" points="78.32 43.41 85.62 47.65 54.42 69.97 54.68 78.69 45.88 73.66 45.64 65.56 78.32 43.41"/><polygon class="cls-1" points="53.93 29.36 61.23 33.59 30.04 55.91 30.29 64.64 21.49 59.6 21.25 51.51 53.93 29.36"/><polygon class="cls-6" points="61.95 33.99 69.25 38.23 38.05 60.55 38.31 69.28 29.51 64.25 29.27 56.13 61.95 33.99"/></g></g></g></g></svg>